<svg xmlns="http://www.w3.org/2000/svg" xmlns:xlink="http://www.w3.org/1999/xlink" width="600" height="1200" viewBox="0 0 600 1200">
  <defs>
    <clipPath id="clip-_300x600-logo">
      <rect width="600" height="1200"/>
    </clipPath>
  </defs>
  <g id="_300x600-logo" data-name="300x600-logo" clip-path="url(#clip-_300x600-logo)">
    <g id="logo-solus" transform="translate(168 989.16)">
      <path id="s" d="M605.174,324c16.517,0,29.947,11.449,30.257,27.384a6.413,6.413,0,0,1-6.638,6.963c-3.4,0-6.328-2.474-6.483-6.653-.155-8.975-7.717-15.628-17.291-15.628-8.955,0-15.744,6.343-15.744,15.008,0,9.437,6.328,13.616,19.449,18.412,14.046,5.106,26.861,11.139,26.861,29.086,0,15.628-12.2,28.159-29.174,28.159C589.74,426.73,576,414.971,576,399.037c0-9.9,4.785-16.865,9.415-16.865,4.015,0,6.483,2.629,6.483,6.188,0,3.094-2.623,4.486-2.623,10.057,0,9.9,8.027,16.245,17.136,16.245,9.57,0,15.9-6.653,15.9-14.7,0-9.9-6.328-14.078-19.449-18.722C588.2,375.987,576,369.641,576,352.159,576,336.379,588.657,324,605.174,324Z" transform="translate(-576 -324)" fill="#00d639"/>
      <path id="a" d="M798.5,505.619a30.535,30.535,0,0,1-30.563-30.481c0-17.637,14.046-30.788,31.027-30.788,18.215,0,31.027,13.616,31.027,32.183v22.588a6.719,6.719,0,0,1-13.43,0V476.995c0-12.224-6.947-20.579-17.906-20.579-9.725,0-17.442,8.2-17.442,18.722,0,9.747,7.562,18.1,17.136,18.1,3.551,0,5.094-.927,7.257-.927a6.129,6.129,0,0,1,6.019,6.033c0,4.8-5.716,7.273-13.124,7.273Z" transform="translate(-701.961 -402.885)" fill="#00d639"/>
      <path id="g" d="M998.7,551.725c-17.29,0-31.645-12.379-31.645-28.469,0-5.416,3.087-7.89,6.638-7.89s6.483,2.322,6.638,6.808c.155,10.057,8.181,17.482,18.215,17.482,10.653,0,17.6-6.808,17.6-15.628,0-10.057-7.717-14.233-20.838-18.412-15.283-4.951-28.249-11.759-28.249-30.633,0-17.33,13.276-30.633,30.563-30.633,17.442,0,31.8,12.686,31.8,29.4,0,10.212-4.166,18.1-9.879,18.1a6.178,6.178,0,0,1-6.483-6.188c0-3.559,3.087-5.106,3.087-11.449,0-10.677-8.336-17.792-18.37-17.792a17.088,17.088,0,0,0-17.442,17.175c0,10.984,7.872,15.628,20.838,19.959,14.974,4.951,28.249,11.139,28.249,29.241,0,16.245-12.812,28.931-30.718,28.931Z" transform="translate(-832.626 -402.885)" fill="#00d639"/>
      <path id="e" d="M1198.561,505.625c-17.291,0-31.491-13.616-31.491-30.633a30.6,30.6,0,0,1,30.717-30.633c17.136,0,30.1,11.914,30.1,27.077,0,5.878-4.166,9.437-10.959,9.437h-17.752c-3.551,0-6.173-2.474-6.173-5.726,0-3.094,2.623-5.571,6.173-5.571h13.276c1.234,0,2.162-.62,2.162-1.857,0-4.486-5.713-11.449-16.362-11.449-9.88,0-17.906,8.51-17.906,18.722a18.37,18.37,0,0,0,18.37,18.567c11.732,0,15.592-6.963,20.378-6.963,4.015,0,6.174,2.629,6.174,5.571,0,2.784-1.853,5.261-6.483,8.2s-11.581,5.258-20.226,5.258Z" transform="translate(-963.89 -402.892)" fill="#00d639"/>
    </g>
  </g>
</svg>
