<svg xmlns="http://www.w3.org/2000/svg" xmlns:xlink="http://www.w3.org/1999/xlink" width="600" height="1200" viewBox="0 0 600 1200">
  <defs>
    <clipPath id="clip-_300x600-cog">
      <rect width="600" height="1200"/>
    </clipPath>
  </defs>
  <g id="_300x600-cog" data-name="300x600-cog" clip-path="url(#clip-_300x600-cog)">
    <g id="Cog-01" transform="translate(575.596 702.455) rotate(164)">
      <path id="Cog-01-2" data-name="Cog-01" d="M211.811,262.755l-44.328-12.711V183.872l50.844-15.078a167.03,167.03,0,0,1,13.5-32.438l-25.3-46.622L253.3,42.926l45.79,25.223,33.125-13.228,15.161-51h66.159l15.407,52.142a166.924,166.924,0,0,1,31,13.074l47.824-26.21,46.776,46.807-26.531,48.195a168.044,168.044,0,0,1,12.326,30.557L593.215,183.9v66.141l-52.878,15.417a166.876,166.876,0,0,1-12.572,30.526l26.5,48.226-46.776,46.807-47.7-26.086a164.768,164.768,0,0,1-31,13.043L413.382,430.15h-66l-15.161-51.556a168.272,168.272,0,0,1-31.924-13.012L253.3,391.144l-46.776-46.961s4.5-8.819,25.3-46.622l51.614-104.222a86.251,86.251,0,0,1,117.095-34.319,69.063,69.063,0,0,1,27.425,93.707,55.2,55.2,0,0,1-74.91,21.954c-21.385-11.717-27.733-37.773-17.533-59.974,28.935-72.955,193.422,29.478,550.746,25.47" transform="translate(-167.483 -3.92)" fill="none" stroke="#00d639" stroke-linecap="round" stroke-linejoin="round" stroke-width="18"/>
    </g>
  </g>
</svg>
